OpenSim_Sub07_CSStiffKnee_LCS.mot
version=1
nRows=26
nColumns=11
inDegrees=no
endheader
time	Bot_Shank	2nd_Bot_Shank	2nd_Top_Shank	Top_Shank	Bot_Thigh	Med_Thigh	Top_Thigh	BNOx	BNOy	BNOZ
0	9873.93409337	9151.98435745	10606.45976512	10451.93296104	11232.00818203	11855.49300960	13729.08014293	202.87971890	-74.68253518	152.35673058
0.01000000	9873.20941740	9151.98045869	10606.16340064	10454.00820789	11232.01020053	11855.17084318	13729.13009055	202.88135972	-74.67986475	152.34216780
0.02000000	9872.45560942	9151.97897861	10605.91071313	10455.61468771	11232.01094639	11854.86557090	13729.17848595	202.88366275	-74.67805566	152.32738176
0.03000000	9871.73708913	9151.97947843	10605.74168240	10456.94744139	11232.01065436	11854.61954071	13729.22001463	202.88618842	-74.67710285	152.31342926
0.04000000	9871.11827620	9151.98151937	10605.69628829	10458.20150978	11232.00955920	11854.47510054	13729.24936209	202.88849717	-74.67700128	152.30136707
0.05000000	9870.66359030	9151.98466267	10605.81451059	10459.57193377	11232.00789566	11854.47459834	13729.26121382	202.89014943	-74.67774591	152.29225197
0.06000000	9870.43745111	9151.98846955	10606.13632912	10461.25375423	11232.00589850	11854.66038204	13729.25025532	202.89070563	-74.67933169	152.28714072
0.07000000	9870.50427831	9151.99250124	10606.70172370	10463.44201202	11232.00380246	11855.07479959	13729.21117208	202.88972623	-74.68175358	152.28709011
0.08000000	9870.92849157	9151.99631896	10607.55067415	10466.33174802	11232.00184230	11855.76019893	13729.13864960	202.88677164	-74.68500654	152.29315691
0.09000000	9871.77451058	9151.99948394	10608.72316027	10470.11800310	11232.00025277	11856.75892800	13729.02737337	202.88140232	-74.68908552	152.30639790
0.10000000	9873.08722756	9152.00161210	10610.24226984	10474.94938565	11231.99923730	11858.09688661	13728.87411830	202.87329479	-74.69399895	152.32755990
0.11000000	9874.76721477	9152.00272348	10612.00624786	10480.63133902	11231.99876778	11859.67841259	13728.69110128	202.86298371	-74.69985479	152.35509888
0.12000000	9876.65035982	9152.00301926	10613.85738442	10486.81549896	11231.99871233	11861.35335933	13728.49746036	202.85138831	-74.70680561	152.38644409
0.13000000	9878.57224518	9152.00270149	10615.63770568	10493.15277573	11231.99893857	11862.97132324	13728.31236624	202.83942966	-74.71500420	152.41901992
0.14000000	9880.36845336	9152.00197220	10617.18923780	10499.29407957	11231.99931413	11864.38190069	13728.15498962	202.82802881	-74.72460334	152.45025076
0.15000000	9881.87456685	9152.00103344	10618.35400695	10504.89032073	11231.99970664	11865.43468809	13728.04450119	202.81810682	-74.73575582	152.47756101
0.16000000	9882.92616812	9152.00008725	10618.97403928	10509.59240947	11231.99998374	11865.97928182	13728.00007164	202.81058475	-74.74861442	152.49837505
0.17000000	9883.39713611	9151.99931236	10618.92815502	10513.11366868	11232.00004023	11865.90349310	13728.03603302	202.80617882	-74.76327623	152.51068050
0.18000000	9883.36848676	9151.99876150	10618.29418536	10515.50499754	11231.99991800	11865.30182871	13728.14054607	202.80449728	-74.77953706	152.51551136
0.19000000	9882.99094706	9151.99844497	10617.21693778	10516.93090511	11231.99970845	11864.33835792	13728.29296374	202.80477552	-74.79709136	152.51492684
0.20000000	9882.41529657	9151.99837305	10615.84127026	10517.55598605	11231.99950300	11863.17720244	13728.47263233	202.80624864	-74.81563348	152.51098695
0.21000000	9881.79231482	9151.99855601	10614.31204074	10517.54483502	11231.99939307	11861.98248398	13728.65889811	202.80815174	-74.83485778	152.50575169
0.22000000	9881.27278136	9151.99900413	10612.77410720	10517.06204669	11231.99947007	11860.91832424	13728.83110740	202.80971993	-74.85445862	152.50128105
0.23000000	9881.00747572	9151.99972769	10611.37232760	10516.27221571	11231.99982544	11860.14884492	13728.96860649	202.81018830	-74.87413035	152.49963503
0.24000000	9881.13408607	9152.00072668	10610.24122625	10515.33242883	11232.00053494	11859.82374411	13729.05269412	202.80888008	-74.89356495	152.50267033
0.25000000	9881.65515002	9152.00189510	10609.40864687	10514.32226395	11232.00151277	11859.94381600	13729.08482536	202.80602807	-74.91242979	152.51014471
